REM DIRINDEX 1\2,1\3,1\4,1\5
REM DIRNAME "folder01","folder02","folder03","folder04","folder05"
TITLE ""
FILE "P1Q_t_1259-1268.mp3" MP3
  TRACK 01 AUDIO
    TITLE "3:cjc173_4744"
    INDEX 01 00:00:00
  TRACK 02 AUDIO
    TITLE "0:"
    INDEX 01 00:01:27
  TRACK 03 AUDIO
    TITLE "4:cjc173_4745"
    INDEX 01 00:01:47
  TRACK 04 AUDIO
    TITLE "0:"
    INDEX 01 00:03:75
  TRACK 05 AUDIO
    TITLE "5:cjc173_4746"
    INDEX 01 00:04:20
  TRACK 06 AUDIO
    TITLE "0:"
    INDEX 01 00:07:28
  TRACK 07 AUDIO
    TITLE "3:cjc173_4747"
    INDEX 01 00:07:75
  TRACK 08 AUDIO
    TITLE "0:"
    INDEX 01 00:09:29
  TRACK 09 AUDIO
    TITLE "4:cjc173_4748"
    INDEX 01 00:09:50
  TRACK 10 AUDIO
    TITLE "0:"
    INDEX 01 00:11:30
  TRACK 11 AUDIO
    TITLE "5:cjc173_4749"
    INDEX 01 00:11:49
  TRACK 12 AUDIO
    TITLE "0:"
    INDEX 01 00:16:11
  TRACK 13 AUDIO
    TITLE "3:cjc173_4750"
    INDEX 01 00:16:56
  TRACK 14 AUDIO
    TITLE "0:"
    INDEX 01 00:17:54
  TRACK 15 AUDIO
    TITLE "4:cjc173_4751"
    INDEX 01 00:17:75
  TRACK 16 AUDIO
    TITLE "0:"
    INDEX 01 00:20:23
  TRACK 17 AUDIO
    TITLE "5:cjc173_4752"
    INDEX 01 00:20:42
  TRACK 18 AUDIO
    TITLE "0:"
    INDEX 01 00:24:01
  TRACK 19 AUDIO
    TITLE "3:cjc173_4753"
    INDEX 01 00:24:48
  TRACK 20 AUDIO
    TITLE "0:"
    INDEX 01 00:25:65
  TRACK 21 AUDIO
    TITLE "4:cjc173_4754"
    INDEX 01 00:26:10
  TRACK 22 AUDIO
    TITLE "0:"
    INDEX 01 00:31:36
  TRACK 23 AUDIO
    TITLE "5:cjc173_4755"
    INDEX 01 00:31:56
  TRACK 24 AUDIO
    TITLE "0:"
    INDEX 01 00:36:08
  TRACK 25 AUDIO
    TITLE "3:cjc173_4756"
    INDEX 01 00:36:53
  TRACK 26 AUDIO
    TITLE "0:"
    INDEX 01 00:37:62
  TRACK 27 AUDIO
    TITLE "4:cjc173_4757"
    INDEX 01 00:38:09
  TRACK 28 AUDIO
    TITLE "0:"
    INDEX 01 00:39:26
  TRACK 29 AUDIO
    TITLE "5:cjc173_4758"
    INDEX 01 00:39:44
  TRACK 30 AUDIO
    TITLE "0:"
    INDEX 01 00:43:61
  TRACK 31 AUDIO
    TITLE "3:cjc173_4759"
    INDEX 01 00:44:31
  TRACK 32 AUDIO
    TITLE "0:"
    INDEX 01 00:45:56
  TRACK 33 AUDIO
    TITLE "4:cjc173_4760"
    INDEX 01 00:46:01
  TRACK 34 AUDIO
    TITLE "0:"
    INDEX 01 00:47:18
  TRACK 35 AUDIO
    TITLE "5:cjc173_4761"
    INDEX 01 00:47:37
  TRACK 36 AUDIO
    TITLE "0:"
    INDEX 01 00:51:72
  TRACK 37 AUDIO
    TITLE "3:cjc173_4762"
    INDEX 01 00:52:42
  TRACK 38 AUDIO
    TITLE "0:"
    INDEX 01 00:53:65
  TRACK 39 AUDIO
    TITLE "4:cjc173_4763"
    INDEX 01 00:54:10
  TRACK 40 AUDIO
    TITLE "0:"
    INDEX 01 00:58:29
  TRACK 41 AUDIO
    TITLE "5:cjc173_4764"
    INDEX 01 00:58:49
  TRACK 42 AUDIO
    TITLE "0:"
    INDEX 01 01:03:60
  TRACK 43 AUDIO
    TITLE "3:cjc173_4765"
    INDEX 01 01:04:30
  TRACK 44 AUDIO
    TITLE "0:"
    INDEX 01 01:05:53
  TRACK 45 AUDIO
    TITLE "4:cjc173_4766"
    INDEX 01 01:05:72
  TRACK 46 AUDIO
    TITLE "0:"
    INDEX 01 01:07:24
  TRACK 47 AUDIO
    TITLE "5:cjc173_4767"
    INDEX 01 01:07:44
  TRACK 48 AUDIO
    TITLE "0:"
    INDEX 01 01:13:15
  TRACK 49 AUDIO
    TITLE "3:cjc173_4768"
    INDEX 01 01:13:64
  TRACK 50 AUDIO
    TITLE "0:"
    INDEX 01 01:15:14
  TRACK 51 AUDIO
    TITLE "4:cjc173_4769"
    INDEX 01 01:15:36
  TRACK 52 AUDIO
    TITLE "0:"
    INDEX 01 01:18:08
  TRACK 53 AUDIO
    TITLE "5:cjc173_4770"
    INDEX 01 01:18:28
  TRACK 54 AUDIO
    TITLE "0:"
    INDEX 01 01:22:59
  TRACK 55 AUDIO
    TITLE "3:cjc173_4771"
    INDEX 01 01:23:29
  TRACK 56 AUDIO
    TITLE "0:"
    INDEX 01 01:24:23
  TRACK 57 AUDIO
    TITLE "4:cjc173_4772"
    INDEX 01 01:24:44
  TRACK 58 AUDIO
    TITLE "0:"
    INDEX 01 01:26:55
  TRACK 59 AUDIO
    TITLE "5:cjc173_4773"
    INDEX 01 01:26:73
  TRACK 60 AUDIO
    TITLE "0:"
    INDEX 01 01:30:12
